<?xml version="1.0" encoding="UTF-8" standalone="no"?>
<!DOCTYPE svg PUBLIC "-//W3C//DTD SVG 1.1//EN" "http://www.w3.org/Graphics/SVG/1.1/DTD/svg11.dtd">
<svg width="100%" height="100%" viewBox="0 0 32 29" version="1.1" xmlns="http://www.w3.org/2000/svg" xmlns:xlink="http://www.w3.org/1999/xlink" xml:space="preserve" xmlns:serif="http://www.serif.com/" style="fill-rule:evenodd;clip-rule:evenodd;stroke-linejoin:round;stroke-miterlimit:2;">
    <g transform="matrix(1,0,0,1,-242.182,-204.592)">
        <g transform="matrix(0.103081,0,0,0.103081,205.216,179.728)">
            <path d="M358.63,513.22L358.61,263.96C358.609,262.737 359.152,261.572 360.09,260.78L382.67,241.57C383.197,241.122 383.982,241.126 384.51,241.58L408.15,262.1C408.556,262.45 408.79,262.962 408.79,263.5L408.84,512.8C408.84,513.354 408.384,513.81 407.83,513.81C391.523,513.843 376.413,513.85 362.5,513.83C361.033,513.83 359.813,513.717 358.84,513.49C358.7,513.457 358.63,513.367 358.63,513.22Z" style="fill:rgb(255,0,0);fill-rule:nonzero;"/>
        </g>
        <g transform="matrix(0.103081,0,0,0.103081,205.216,179.728)">
            <path d="M511.53,241.34C511.77,241.34 511.95,241.387 512.07,241.48C518.937,247.047 526.48,253.497 534.7,260.83C536.18,262.15 536.45,262.42 536.45,264.76C536.49,338.84 536.53,421.52 536.57,512.8C536.57,513.407 536.267,513.713 535.66,513.72C527.473,513.773 519.423,513.8 511.51,513.8C503.59,513.8 495.537,513.773 487.35,513.72C486.743,513.713 486.44,513.407 486.44,512.8C486.493,421.52 486.547,338.84 486.6,264.76C486.6,262.42 486.87,262.15 488.35,260.83C496.57,253.497 504.113,247.047 510.98,241.48C511.1,241.387 511.283,241.34 511.53,241.34Z" style="fill:rgb(255,0,0);fill-rule:nonzero;"/>
        </g>
        <g transform="matrix(0.103081,0,0,0.103081,205.216,179.728)">
            <path d="M575.27,241.2C575.483,241.2 575.637,241.237 575.73,241.31C583.717,247.863 591.703,254.7 599.69,261.82C600.167,262.246 600.44,262.854 600.44,263.49L600.58,512.94C600.58,513.326 600.266,513.645 599.88,513.65C594.027,513.73 585.87,513.773 575.41,513.78C564.957,513.787 556.803,513.753 550.95,513.68C550.564,513.675 550.25,513.356 550.25,512.97L550.13,263.52C550.13,262.884 550.403,262.276 550.88,261.85C558.86,254.717 566.84,247.87 574.82,241.31C574.913,241.237 575.063,241.2 575.27,241.2Z" style="fill:rgb(255,0,0);fill-rule:nonzero;"/>
        </g>
        <g transform="matrix(0.103081,0,0,0.103081,205.216,179.728)">
            <path d="M639.2,241.24C639.373,241.24 639.473,241.253 639.5,241.28C644.993,245.627 652.79,252.24 662.89,261.12C663.757,261.887 664.19,262.64 664.19,263.38C664.343,385.593 664.34,468.733 664.18,512.8C664.175,513.29 663.774,513.69 663.29,513.69C655.183,513.743 647.157,513.77 639.21,513.77C631.27,513.77 623.247,513.743 615.14,513.69C614.656,513.69 614.255,513.29 614.25,512.8C614.083,468.733 614.07,385.593 614.21,263.38C614.21,262.64 614.643,261.887 615.51,261.12C625.603,252.24 633.397,245.627 638.89,241.28C638.917,241.253 639.02,241.24 639.2,241.24Z" style="fill:rgb(255,0,0);fill-rule:nonzero;"/>
        </g>
        <g transform="matrix(0.103081,0,0,0.103081,205.216,179.728)">
            <path d="M447.52,241.49C447.673,241.49 447.817,241.537 447.95,241.63C450.137,243.137 452.237,244.76 454.25,246.5C460.157,251.573 466.023,256.65 471.85,261.73C472.351,262.162 472.64,262.794 472.64,263.46L472.67,512.92C472.67,513.447 472.407,513.717 471.88,513.73C469.647,513.79 461.523,513.82 447.51,513.82C433.503,513.82 425.383,513.79 423.15,513.73C422.623,513.717 422.36,513.447 422.36,512.92L422.39,263.46C422.39,262.794 422.679,262.162 423.18,261.73C429.007,256.65 434.873,251.573 440.78,246.5C442.793,244.76 444.893,243.137 447.08,241.63C447.213,241.537 447.36,241.49 447.52,241.49Z" style="fill:rgb(255,0,0);fill-rule:nonzero;"/>
        </g>
        <g id="Layer1">
        </g>
        <g id="Layer2">
        </g>
        <g id="Layer3">
        </g>
    </g>
</svg>
