<?xml version="1.0" encoding="UTF-8" standalone="no"?>
<!DOCTYPE svg PUBLIC "-//W3C//DTD SVG 1.1//EN" "http://www.w3.org/Graphics/SVG/1.1/DTD/svg11.dtd">
<svg width="100%" height="100%" viewBox="0 0 581 70" version="1.1" xmlns="http://www.w3.org/2000/svg" xmlns:xlink="http://www.w3.org/1999/xlink" xml:space="preserve" xmlns:serif="http://www.serif.com/" style="fill-rule:evenodd;clip-rule:evenodd;stroke-linejoin:round;stroke-miterlimit:2;">
    <g transform="matrix(1,0,0,1,-249.318,-365.428)">
        <g transform="matrix(0.25141,0,0,0.25141,159.16,304.788)">
            <path d="M358.63,513.22L358.61,263.96C358.609,262.737 359.152,261.572 360.09,260.78L382.67,241.57C383.197,241.122 383.982,241.126 384.51,241.58L408.15,262.1C408.556,262.45 408.79,262.962 408.79,263.5L408.84,512.8C408.84,513.354 408.384,513.81 407.83,513.81C391.523,513.843 376.413,513.85 362.5,513.83C361.033,513.83 359.813,513.717 358.84,513.49C358.7,513.457 358.63,513.367 358.63,513.22Z" style="fill:rgb(255,0,0);fill-rule:nonzero;"/>
        </g>
        <g transform="matrix(0.25141,0,0,0.25141,159.16,304.788)">
            <path d="M511.53,241.34C511.77,241.34 511.95,241.387 512.07,241.48C518.937,247.047 526.48,253.497 534.7,260.83C536.18,262.15 536.45,262.42 536.45,264.76C536.49,338.84 536.53,421.52 536.57,512.8C536.57,513.407 536.267,513.713 535.66,513.72C527.473,513.773 519.423,513.8 511.51,513.8C503.59,513.8 495.537,513.773 487.35,513.72C486.743,513.713 486.44,513.407 486.44,512.8C486.493,421.52 486.547,338.84 486.6,264.76C486.6,262.42 486.87,262.15 488.35,260.83C496.57,253.497 504.113,247.047 510.98,241.48C511.1,241.387 511.283,241.34 511.53,241.34Z" style="fill:rgb(255,0,0);fill-rule:nonzero;"/>
        </g>
        <g transform="matrix(0.25141,0,0,0.25141,159.16,304.788)">
            <path d="M575.27,241.2C575.483,241.2 575.637,241.237 575.73,241.31C583.717,247.863 591.703,254.7 599.69,261.82C600.167,262.246 600.44,262.854 600.44,263.49L600.58,512.94C600.58,513.326 600.266,513.645 599.88,513.65C594.027,513.73 585.87,513.773 575.41,513.78C564.957,513.787 556.803,513.753 550.95,513.68C550.564,513.675 550.25,513.356 550.25,512.97L550.13,263.52C550.13,262.884 550.403,262.276 550.88,261.85C558.86,254.717 566.84,247.87 574.82,241.31C574.913,241.237 575.063,241.2 575.27,241.2Z" style="fill:rgb(255,0,0);fill-rule:nonzero;"/>
        </g>
        <g transform="matrix(0.25141,0,0,0.25141,159.16,304.788)">
            <path d="M639.2,241.24C639.373,241.24 639.473,241.253 639.5,241.28C644.993,245.627 652.79,252.24 662.89,261.12C663.757,261.887 664.19,262.64 664.19,263.38C664.343,385.593 664.34,468.733 664.18,512.8C664.175,513.29 663.774,513.69 663.29,513.69C655.183,513.743 647.157,513.77 639.21,513.77C631.27,513.77 623.247,513.743 615.14,513.69C614.656,513.69 614.255,513.29 614.25,512.8C614.083,468.733 614.07,385.593 614.21,263.38C614.21,262.64 614.643,261.887 615.51,261.12C625.603,252.24 633.397,245.627 638.89,241.28C638.917,241.253 639.02,241.24 639.2,241.24Z" style="fill:rgb(255,0,0);fill-rule:nonzero;"/>
        </g>
        <g transform="matrix(0.25141,0,0,0.25141,159.16,304.788)">
            <path d="M447.52,241.49C447.673,241.49 447.817,241.537 447.95,241.63C450.137,243.137 452.237,244.76 454.25,246.5C460.157,251.573 466.023,256.65 471.85,261.73C472.351,262.162 472.64,262.794 472.64,263.46L472.67,512.92C472.67,513.447 472.407,513.717 471.88,513.73C469.647,513.79 461.523,513.82 447.51,513.82C433.503,513.82 425.383,513.79 423.15,513.73C422.623,513.717 422.36,513.447 422.36,512.92L422.39,263.46C422.39,262.794 422.679,262.162 423.18,261.73C429.007,256.65 434.873,251.573 440.78,246.5C442.793,244.76 444.893,243.137 447.08,241.63C447.213,241.537 447.36,241.49 447.52,241.49Z" style="fill:rgb(255,0,0);fill-rule:nonzero;"/>
        </g>
        <g id="Layer1">
        </g>
        <g id="Layer2">
        </g>
        <g transform="matrix(0.707102,0,0,0.334721,212.841,370.086)">
            <g id="Layer3">
                <g>
                    <path d="M215.445,190.282L215.445,180.173L210.127,180.173C205.341,180.173 204.81,177.926 204.81,170.812L204.81,125.131L205.873,125.131C213.406,125.131 218.546,136.551 218.812,153.775L223.775,153.775L223.421,88.062L218.812,88.062C217.926,104.35 213.761,115.021 206.494,115.021L204.81,115.021L204.81,78.513C204.81,67.842 206.228,65.221 213.052,65.221C227.231,65.221 231.663,76.829 235.473,104.162L239.905,104.162L239.284,55.111L179.818,55.111L179.818,65.221L183.717,65.221C188.503,65.221 189.035,67.468 189.035,74.582L189.035,170.812C189.035,177.926 188.503,180.173 183.717,180.173L179.818,180.173L179.818,190.282L215.445,190.282Z" style="fill-rule:nonzero;"/>
                    <path d="M238.198,190.282L287.999,190.282L288.807,149.008L285.134,148.387C282.049,171.042 277.642,181.903 267.065,181.903C259.499,181.903 258.912,180.352 258.912,171.817L258.912,136.284L259.793,136.284C266.036,136.284 270.297,145.749 270.517,160.025L274.63,160.025L274.337,105.561L270.517,105.561C269.783,119.061 266.33,127.905 260.307,127.905L258.912,127.905L258.912,97.647C258.912,88.803 260.087,86.631 265.743,86.631C277.495,86.631 281.168,96.251 284.326,118.905L287.999,118.905L287.484,78.252L238.198,78.252L238.198,86.631L241.43,86.631C245.397,86.631 245.837,88.493 245.837,94.389L245.837,174.145C245.837,180.041 245.397,181.903 241.43,181.903L238.198,181.903L238.198,190.282Z" style="fill-rule:nonzero;"/>
                    <path d="M292.92,86.631C296.299,86.631 299.163,89.424 300.999,95.01L300.999,162.507C300.999,176.938 299.751,181.283 292.92,181.903L292.92,190.282L314.074,190.282L314.074,181.903C307.243,181.283 305.994,176.938 305.994,162.507L305.994,104.475L306.141,104.475L340.516,191.834L345.291,191.834L345.291,106.026C345.291,91.596 346.54,87.251 353.371,86.631L353.371,78.252L332.216,78.252L332.216,86.631C339.047,87.251 340.296,91.596 340.296,106.026L340.296,149.628L311.87,78.252L292.92,78.252L292.92,86.631Z" style="fill-rule:nonzero;"/>
                    <path d="M405.742,120.457L405.08,76.234L401.996,76.234L397.809,84.613C394.43,79.183 390.17,75.924 384.367,75.924C368.795,75.924 356.602,101.061 356.602,134.267C356.602,169.8 366.665,192.61 382.972,192.61C396.56,192.61 403.979,179.576 406.843,151.646L402.51,149.473C400.747,169.645 394.724,183.3 385.983,183.3C376.581,183.3 371.146,169.024 371.146,135.663C371.146,101.527 374.965,83.527 385.395,83.527C394.357,83.527 399.498,101.527 401.996,121.233L405.742,120.457Z" style="fill-rule:nonzero;"/>
                    <path d="M412.279,190.282L462.079,190.282L462.887,149.008L459.214,148.387C456.129,171.042 451.722,181.903 441.145,181.903C433.58,181.903 432.992,180.352 432.992,171.817L432.992,136.284L433.874,136.284C440.117,136.284 444.377,145.749 444.597,160.025L448.711,160.025L448.417,105.561L444.597,105.561C443.863,119.061 440.411,127.905 434.388,127.905L432.992,127.905L432.992,97.647C432.992,88.803 434.167,86.631 439.823,86.631C451.575,86.631 455.248,96.251 458.406,118.905L462.079,118.905L461.565,78.252L412.279,78.252L412.279,86.631L415.511,86.631C419.477,86.631 419.918,88.493 419.918,94.389L419.918,174.145C419.918,180.041 419.477,181.903 415.511,181.903L412.279,181.903L412.279,190.282Z" style="fill-rule:nonzero;"/>
                    <path d="M488.6,190.282L513.956,190.282L513.956,180.169L512.715,180.169C505.977,180.169 504.115,170.617 504.115,154.136L504.115,69.295L504.292,69.295L524.328,190.282L528.761,190.282L548.354,67.797L548.531,67.797L548.531,170.805C548.531,177.921 548,180.169 543.212,180.169L539.311,180.169L539.311,190.282L573.798,190.282L573.798,180.169L569.632,180.169C564.844,180.169 564.312,177.921 564.312,170.805L564.312,74.539C564.312,67.422 564.844,65.175 569.632,65.175L573.798,65.175L573.798,55.062L544.631,55.062L531.51,137.093L531.332,137.093L517.591,55.062L489.132,55.062L489.132,65.175L492.767,65.175C497.554,65.175 498.086,67.422 498.086,74.539L498.086,156.571C498.086,174.925 494.806,180.169 488.6,180.169L488.6,190.282Z" style="fill-rule:nonzero;"/>
                    <path d="M573.289,190.282L594.59,190.282L594.59,181.903C590.551,181.903 587.245,179.421 587.245,171.352C587.245,168.093 587.759,164.059 589.449,155.835L608.032,155.835L610.897,171.662C611.264,173.679 611.558,175.697 611.558,177.403C611.558,180.662 610.529,181.903 608.399,181.903L606.122,181.903L606.122,190.282L631.83,190.282L631.83,181.903C627.203,181.593 626.321,179.576 624.632,171.042L605.902,75.924L600.393,75.924L582.985,162.197C580.047,176.783 576.815,181.283 573.289,181.903L573.289,190.282ZM591.285,146.525L598.851,107.888L606.122,146.525L591.285,146.525Z" style="fill-rule:nonzero;"/>
                    <path d="M629.553,190.282L653.645,190.282L653.645,181.903L651.589,181.903C647.476,181.903 645.566,178.645 645.566,174.145C645.566,169.645 646.227,167.628 653.645,147.922L661.872,172.904C662.753,175.541 663.194,176.938 663.194,178.645C663.194,180.662 662.239,181.903 659.595,181.903L657.979,181.903L657.979,190.282L684.348,190.282L684.348,181.903C680.676,181.593 679.354,179.731 676.709,171.817L661.872,127.129L672.008,100.285C676.048,89.734 678.619,86.941 682.512,86.631L682.512,78.252L659.815,78.252L659.815,86.631C664.516,86.631 667.087,89.113 667.087,94.544C667.087,96.872 666.279,101.216 659.154,118.44L651.368,95.01C650.634,92.992 650.34,91.441 650.34,90.355C650.34,88.027 651.075,86.786 654.453,86.631L655.482,86.631L655.482,78.252L629.553,78.252L629.553,86.631C632.638,87.251 633.52,87.717 635.209,92.682L650.928,140.008L638.368,172.593C636.164,178.334 633.152,181.283 629.553,181.903L629.553,190.282Z" style="fill-rule:nonzero;"/>
                    <path d="M706.025,190.282L758.295,190.282L759.228,145.753L755.184,145.753C752.928,168.1 748.028,181.409 736.749,181.409C728.427,181.409 727.96,179.766 727.96,170.236L727.96,88.735C727.96,82.491 728.427,80.519 732.627,80.519L736.516,80.519L736.516,71.646L706.025,71.646L706.025,80.519L709.448,80.519C713.648,80.519 714.115,82.491 714.115,88.735L714.115,173.194C714.115,179.438 713.648,181.409 709.448,181.409L706.025,181.409L706.025,190.282Z" style="fill-rule:nonzero;"/>
                    <path d="M762.184,190.282L814.454,190.282L815.387,145.753L811.342,145.753C809.087,168.1 804.187,181.409 792.908,181.409C784.585,181.409 784.119,179.766 784.119,170.236L784.119,88.735C784.119,82.491 784.585,80.519 788.786,80.519L792.675,80.519L792.675,71.646L762.184,71.646L762.184,80.519L765.607,80.519C769.807,80.519 770.273,82.491 770.273,88.735L770.273,173.194C770.273,179.438 769.807,181.409 765.607,181.409L762.184,181.409L762.184,190.282Z" style="fill-rule:nonzero;"/>
                    <path d="M871.935,116.34L871.235,69.51L867.968,69.51L863.534,78.383C859.956,72.632 855.445,69.182 849.3,69.182C832.81,69.182 819.899,95.801 819.899,130.964C819.899,168.593 830.555,192.747 847.822,192.747C862.212,192.747 870.068,178.945 873.102,149.368L868.512,147.067C866.646,168.428 860.268,182.888 851.011,182.888C841.055,182.888 835.299,167.771 835.299,132.443C835.299,96.294 839.344,77.233 850.389,77.233C859.879,77.233 865.323,96.294 867.968,117.162L871.935,116.34Z" style="fill-rule:nonzero;"/>
                </g>
            </g>
        </g>
    </g>
</svg>
